<svg width="117" height="113" viewBox="0 0 117 113" fill="none" xmlns="http://www.w3.org/2000/svg">
<rect width="117" height="113" rx="15" fill="black"/>
<path d="M42.5625 61.5625L35.1562 43.9375L27.8438 61.5625H42.5625ZM14.9375 78V76.8438C16.5833 76.6562 17.8125 76.0312 18.625 74.9688C19.4583 73.9062 20.875 71.0208 22.875 66.3125L36.2188 34.9062H37.4688L53.4062 71.1875C54.4688 73.6042 55.3125 75.1042 55.9375 75.6875C56.5833 76.25 57.6562 76.6354 59.1562 76.8438V78H42.875V76.8438C44.75 76.6771 45.9583 76.4792 46.5 76.25C47.0417 76 47.3125 75.4062 47.3125 74.4688C47.3125 74.1562 47.2083 73.6042 47 72.8125C46.7917 72.0208 46.5 71.1875 46.125 70.3125L43.4688 64.1562H26.7188C25.0521 68.3438 24.0521 70.9062 23.7188 71.8438C23.4062 72.7604 23.25 73.4896 23.25 74.0312C23.25 75.1146 23.6875 75.8646 24.5625 76.2812C25.1042 76.5312 26.125 76.7188 27.625 76.8438V78H14.9375ZM79.2812 75.6875C82.5521 75.6875 85.2917 75.0521 87.5 73.7812C89.7083 72.5104 90.8125 70.0729 90.8125 66.4688C90.8125 62.8854 89.5208 60.4375 86.9375 59.125C84.3542 57.8125 81.0625 57.1562 77.0625 57.1562C76.0833 57.1562 75.4583 57.1562 75.1875 57.1562C74.9375 57.1562 74.5417 57.1458 74 57.125V73.0625C74 74.1667 74.3125 74.8854 74.9375 75.2188C75.5625 75.5312 77.0104 75.6875 79.2812 75.6875ZM61.3438 76.8438C63.9271 76.6979 65.5938 76.3021 66.3438 75.6562C67.1146 74.9896 67.5 73.4583 67.5 71.0625V42.5938C67.5 40.2396 67.1146 38.7292 66.3438 38.0625C65.5938 37.375 63.9271 36.9688 61.3438 36.8438V35.6562H79.2812C84.4062 35.6562 88.4688 36.4792 91.4688 38.125C94.4896 39.7708 96 42.6042 96 46.625C96 49.6458 94.9479 51.9375 92.8438 53.5C91.6562 54.3958 89.875 55.1354 87.5 55.7188C90.4375 56.4271 92.9479 57.6146 95.0312 59.2812C97.1146 60.9271 98.1562 63.2396 98.1562 66.2188C98.1562 71.2188 95.8438 74.6562 91.2188 76.5312C88.7812 77.5104 85.7812 78 82.2188 78H61.3438V76.8438ZM80.0938 54.5938C82.2396 54.5521 84.0208 54.2083 85.4375 53.5625C88.1458 52.3125 89.5 50.0729 89.5 46.8438C89.5 43.0312 87.9375 40.4583 84.8125 39.125C83.0833 38.3958 80.4583 38.0312 76.9375 38.0312C75.6042 38.0312 74.7812 38.1458 74.4688 38.375C74.1562 38.6042 74 39.2292 74 40.25V54.6875L80.0938 54.5938Z" fill="white"/>
</svg>
