<svg width="546" height="113" viewBox="0 0 546 113" fill="none" xmlns="http://www.w3.org/2000/svg">
<rect width="546" height="113" rx="15" fill="black"/>
<path d="M88.5625 61.5625L81.1562 43.9375L73.8438 61.5625H88.5625ZM60.9375 78V76.8438C62.5833 76.6562 63.8125 76.0312 64.625 74.9688C65.4583 73.9062 66.875 71.0208 68.875 66.3125L82.2188 34.9062H83.4688L99.4062 71.1875C100.469 73.6042 101.312 75.1042 101.938 75.6875C102.583 76.25 103.656 76.6354 105.156 76.8438V78H88.875V76.8438C90.75 76.6771 91.9583 76.4792 92.5 76.25C93.0417 76 93.3125 75.4062 93.3125 74.4688C93.3125 74.1562 93.2083 73.6042 93 72.8125C92.7917 72.0208 92.5 71.1875 92.125 70.3125L89.4688 64.1562H72.7188C71.0521 68.3438 70.0521 70.9062 69.7188 71.8438C69.4062 72.7604 69.25 73.4896 69.25 74.0312C69.25 75.1146 69.6875 75.8646 70.5625 76.2812C71.1042 76.5312 72.125 76.7188 73.625 76.8438V78H60.9375ZM116.156 49.0625V69.0625C116.156 70.4792 116.354 71.6146 116.75 72.4688C117.521 74.0521 118.938 74.8438 121 74.8438C122.417 74.8438 123.802 74.375 125.156 73.4375C125.927 72.9167 126.708 72.1979 127.5 71.2812V54.1562C127.5 52.5521 127.188 51.5 126.562 51C125.938 50.5 124.688 50.1979 122.812 50.0938V49.0625H132.906V71.0625C132.906 72.4792 133.156 73.4583 133.656 74C134.177 74.5208 135.26 74.75 136.906 74.6875V75.5625C135.76 75.875 134.917 76.1146 134.375 76.2812C133.833 76.4271 132.927 76.7083 131.656 77.125C131.115 77.3125 129.927 77.7604 128.094 78.4688C127.99 78.4688 127.927 78.4167 127.906 78.3125C127.885 78.2292 127.875 78.125 127.875 78V72.9688C126.458 74.6562 125.167 75.9062 124 76.7188C122.229 77.9688 120.354 78.5938 118.375 78.5938C116.562 78.5938 114.854 77.9479 113.25 76.6562C111.625 75.3854 110.812 73.25 110.812 70.25V54.0312C110.812 52.3646 110.458 51.25 109.75 50.6875C109.292 50.3333 108.312 50.0833 106.812 49.9375V49.0625H116.156ZM141.562 68.1562H142.594C143.073 70.5312 143.719 72.3542 144.531 73.625C145.99 75.9583 148.125 77.125 150.938 77.125C152.5 77.125 153.729 76.6979 154.625 75.8438C155.542 74.9688 156 73.8438 156 72.4688C156 71.5938 155.74 70.75 155.219 69.9375C154.698 69.125 153.781 68.3333 152.469 67.5625L148.969 65.5625C146.406 64.1875 144.521 62.8021 143.312 61.4062C142.104 60.0104 141.5 58.3646 141.5 56.4688C141.5 54.1354 142.333 52.2188 144 50.7188C145.667 49.2188 147.76 48.4688 150.281 48.4688C151.385 48.4688 152.594 48.6771 153.906 49.0938C155.24 49.5104 155.99 49.7188 156.156 49.7188C156.531 49.7188 156.802 49.6667 156.969 49.5625C157.135 49.4583 157.281 49.2917 157.406 49.0625H158.156L158.375 57.7812H157.406C156.99 55.7604 156.427 54.1875 155.719 53.0625C154.427 50.9792 152.562 49.9375 150.125 49.9375C148.667 49.9375 147.521 50.3854 146.688 51.2812C145.854 52.1771 145.438 53.2292 145.438 54.4375C145.438 56.3542 146.875 58.0625 149.75 59.5625L153.875 61.7812C158.312 64.1979 160.531 67.0104 160.531 70.2188C160.531 72.6771 159.604 74.6875 157.75 76.25C155.917 77.8125 153.51 78.5938 150.531 78.5938C149.281 78.5938 147.865 78.3854 146.281 77.9688C144.698 77.5521 143.76 77.3438 143.469 77.3438C143.219 77.3438 143 77.4375 142.812 77.625C142.625 77.7917 142.479 78 142.375 78.25H141.562V68.1562ZM179.469 49.1875V51.4375H173.094L173.031 69.4375C173.031 71.0208 173.167 72.2188 173.438 73.0312C173.938 74.4688 174.917 75.1875 176.375 75.1875C177.125 75.1875 177.771 75.0104 178.312 74.6562C178.875 74.3021 179.51 73.7396 180.219 72.9688L181.031 73.6562L180.344 74.5938C179.26 76.0521 178.115 77.0833 176.906 77.6875C175.698 78.2917 174.531 78.5938 173.406 78.5938C170.948 78.5938 169.281 77.5 168.406 75.3125C167.927 74.125 167.688 72.4792 167.688 70.375V51.4375H164.281C164.177 51.375 164.094 51.3125 164.031 51.25C163.99 51.1875 163.969 51.1042 163.969 51C163.969 50.7917 164.01 50.6354 164.094 50.5312C164.198 50.4062 164.5 50.1354 165 49.7188C166.438 48.5312 167.469 47.5729 168.094 46.8438C168.74 46.0938 170.24 44.1354 172.594 40.9688C172.865 40.9688 173.021 40.9896 173.062 41.0312C173.125 41.0729 173.156 41.2292 173.156 41.5V49.1875H179.469ZM186.25 37.6562C186.25 36.7604 186.562 35.9896 187.188 35.3438C187.812 34.6979 188.583 34.375 189.5 34.375C190.396 34.375 191.156 34.6979 191.781 35.3438C192.427 35.9688 192.75 36.7396 192.75 37.6562C192.75 38.5521 192.427 39.3229 191.781 39.9688C191.156 40.5938 190.396 40.9062 189.5 40.9062C188.583 40.9062 187.812 40.5938 187.188 39.9688C186.562 39.3229 186.25 38.5521 186.25 37.6562ZM182.25 77.125C184.479 76.9167 185.885 76.5417 186.469 76C187.052 75.4375 187.344 73.9375 187.344 71.5V56.5938C187.344 55.2396 187.25 54.3021 187.062 53.7812C186.75 52.9271 186.094 52.5 185.094 52.5C184.865 52.5 184.635 52.5208 184.406 52.5625C184.198 52.6042 183.573 52.7708 182.531 53.0625V52.0938L183.875 51.6562C187.521 50.4688 190.062 49.5729 191.5 48.9688C192.083 48.7188 192.458 48.5938 192.625 48.5938C192.667 48.7396 192.688 48.8958 192.688 49.0625V71.5C192.688 73.875 192.969 75.3646 193.531 75.9688C194.115 76.5729 195.417 76.9583 197.438 77.125V78H182.25V77.125ZM199.969 77.125C201.448 76.9375 202.479 76.5729 203.062 76.0312C203.667 75.4688 203.969 74.2292 203.969 72.3125V56.4688C203.969 55.1354 203.844 54.1979 203.594 53.6562C203.198 52.8646 202.385 52.4688 201.156 52.4688C200.969 52.4688 200.771 52.4792 200.562 52.5C200.375 52.5208 200.135 52.5521 199.844 52.5938V51.5C200.698 51.25 202.719 50.6042 205.906 49.5625L208.844 48.5938C208.99 48.5938 209.073 48.6458 209.094 48.75C209.135 48.8542 209.156 49 209.156 49.1875V53.7812C211.073 51.9896 212.573 50.7604 213.656 50.0938C215.281 49.0729 216.969 48.5625 218.719 48.5625C220.135 48.5625 221.427 48.9688 222.594 49.7812C224.844 51.3646 225.969 54.1875 225.969 58.25V72.8438C225.969 74.3438 226.271 75.4271 226.875 76.0938C227.479 76.7604 228.49 77.1042 229.906 77.125V78H216.562V77.125C218.083 76.9167 219.146 76.5 219.75 75.875C220.354 75.2292 220.656 73.8438 220.656 71.7188V58.375C220.656 56.5833 220.323 55.1042 219.656 53.9375C218.99 52.75 217.76 52.1562 215.969 52.1562C214.74 52.1562 213.49 52.5729 212.219 53.4062C211.51 53.8854 210.594 54.6771 209.469 55.7812V73.2812C209.469 74.7812 209.802 75.7917 210.469 76.3125C211.135 76.8125 212.188 77.0833 213.625 77.125V78H199.969V77.125ZM265.844 75.6875C269.115 75.6875 271.854 75.0521 274.062 73.7812C276.271 72.5104 277.375 70.0729 277.375 66.4688C277.375 62.8854 276.083 60.4375 273.5 59.125C270.917 57.8125 267.625 57.1562 263.625 57.1562C262.646 57.1562 262.021 57.1562 261.75 57.1562C261.5 57.1562 261.104 57.1458 260.562 57.125V73.0625C260.562 74.1667 260.875 74.8854 261.5 75.2188C262.125 75.5312 263.573 75.6875 265.844 75.6875ZM247.906 76.8438C250.49 76.6979 252.156 76.3021 252.906 75.6562C253.677 74.9896 254.062 73.4583 254.062 71.0625V42.5938C254.062 40.2396 253.677 38.7292 252.906 38.0625C252.156 37.375 250.49 36.9688 247.906 36.8438V35.6562H265.844C270.969 35.6562 275.031 36.4792 278.031 38.125C281.052 39.7708 282.562 42.6042 282.562 46.625C282.562 49.6458 281.51 51.9375 279.406 53.5C278.219 54.3958 276.438 55.1354 274.062 55.7188C277 56.4271 279.51 57.6146 281.594 59.2812C283.677 60.9271 284.719 63.2396 284.719 66.2188C284.719 71.2188 282.406 74.6562 277.781 76.5312C275.344 77.5104 272.344 78 268.781 78H247.906V76.8438ZM266.656 54.5938C268.802 54.5521 270.583 54.2083 272 53.5625C274.708 52.3125 276.062 50.0729 276.062 46.8438C276.062 43.0312 274.5 40.4583 271.375 39.125C269.646 38.3958 267.021 38.0312 263.5 38.0312C262.167 38.0312 261.344 38.1458 261.031 38.375C260.719 38.6042 260.562 39.2292 260.562 40.25V54.6875L266.656 54.5938ZM304.156 48.6875C307.094 48.6875 309.667 49.7083 311.875 51.75C314.083 53.7708 315.188 56.6458 315.188 60.375H295.344C295.552 65.2083 296.646 68.7292 298.625 70.9375C300.604 73.1458 302.948 74.25 305.656 74.25C307.844 74.25 309.688 73.6771 311.188 72.5312C312.688 71.3854 314.073 69.7604 315.344 67.6562L316.438 68.0312C315.583 70.6771 313.979 73.125 311.625 75.375C309.292 77.625 306.427 78.75 303.031 78.75C299.115 78.75 296.083 77.2708 293.938 74.3125C291.812 71.3542 290.75 67.9479 290.75 64.0938C290.75 59.9062 291.99 56.2917 294.469 53.25C296.948 50.2083 300.177 48.6875 304.156 48.6875ZM302.344 50.9688C299.969 50.9688 298.156 52.0208 296.906 54.125C296.24 55.25 295.76 56.6667 295.469 58.375H308.656C308.427 56.2917 308.031 54.7396 307.469 53.7188C306.448 51.8854 304.74 50.9688 302.344 50.9688ZM319.25 77.125C321.188 76.9375 322.5 76.5521 323.188 75.9688C323.875 75.3646 324.219 74.1979 324.219 72.4688V41.9375C324.219 40.5625 324.104 39.6146 323.875 39.0938C323.458 38.2188 322.615 37.7812 321.344 37.7812C321.052 37.7812 320.729 37.8125 320.375 37.875C320.042 37.9375 319.615 38.0312 319.094 38.1562V37.125C321.906 36.375 325.292 35.375 329.25 34.125C329.396 34.125 329.479 34.1875 329.5 34.3125C329.542 34.4375 329.562 34.7083 329.562 35.125V72.5938C329.562 74.4062 329.875 75.5833 330.5 76.125C331.125 76.6458 332.417 76.9792 334.375 77.125V78H319.25V77.125ZM337.062 77.125C339 76.9375 340.312 76.5521 341 75.9688C341.688 75.3646 342.031 74.1979 342.031 72.4688V41.9375C342.031 40.5625 341.917 39.6146 341.688 39.0938C341.271 38.2188 340.427 37.7812 339.156 37.7812C338.865 37.7812 338.542 37.8125 338.188 37.875C337.854 37.9375 337.427 38.0312 336.906 38.1562V37.125C339.719 36.375 343.104 35.375 347.062 34.125C347.208 34.125 347.292 34.1875 347.312 34.3125C347.354 34.4375 347.375 34.7083 347.375 35.125V72.5938C347.375 74.4062 347.688 75.5833 348.312 76.125C348.938 76.6458 350.229 76.9792 352.188 77.125V78H337.062V77.125ZM358.812 37.6562C358.812 36.7604 359.125 35.9896 359.75 35.3438C360.375 34.6979 361.146 34.375 362.062 34.375C362.958 34.375 363.719 34.6979 364.344 35.3438C364.99 35.9688 365.312 36.7396 365.312 37.6562C365.312 38.5521 364.99 39.3229 364.344 39.9688C363.719 40.5938 362.958 40.9062 362.062 40.9062C361.146 40.9062 360.375 40.5938 359.75 39.9688C359.125 39.3229 358.812 38.5521 358.812 37.6562ZM354.812 77.125C357.042 76.9167 358.448 76.5417 359.031 76C359.615 75.4375 359.906 73.9375 359.906 71.5V56.5938C359.906 55.2396 359.812 54.3021 359.625 53.7812C359.312 52.9271 358.656 52.5 357.656 52.5C357.427 52.5 357.198 52.5208 356.969 52.5625C356.76 52.6042 356.135 52.7708 355.094 53.0625V52.0938L356.438 51.6562C360.083 50.4688 362.625 49.5729 364.062 48.9688C364.646 48.7188 365.021 48.5938 365.188 48.5938C365.229 48.7396 365.25 48.8958 365.25 49.0625V71.5C365.25 73.875 365.531 75.3646 366.094 75.9688C366.677 76.5729 367.979 76.9583 370 77.125V78H354.812V77.125ZM372.531 77.125C374.01 76.9375 375.042 76.5729 375.625 76.0312C376.229 75.4688 376.531 74.2292 376.531 72.3125V56.4688C376.531 55.1354 376.406 54.1979 376.156 53.6562C375.76 52.8646 374.948 52.4688 373.719 52.4688C373.531 52.4688 373.333 52.4792 373.125 52.5C372.938 52.5208 372.698 52.5521 372.406 52.5938V51.5C373.26 51.25 375.281 50.6042 378.469 49.5625L381.406 48.5938C381.552 48.5938 381.635 48.6458 381.656 48.75C381.698 48.8542 381.719 49 381.719 49.1875V53.7812C383.635 51.9896 385.135 50.7604 386.219 50.0938C387.844 49.0729 389.531 48.5625 391.281 48.5625C392.698 48.5625 393.99 48.9688 395.156 49.7812C397.406 51.3646 398.531 54.1875 398.531 58.25V72.8438C398.531 74.3438 398.833 75.4271 399.438 76.0938C400.042 76.7604 401.052 77.1042 402.469 77.125V78H389.125V77.125C390.646 76.9167 391.708 76.5 392.312 75.875C392.917 75.2292 393.219 73.8438 393.219 71.7188V58.375C393.219 56.5833 392.885 55.1042 392.219 53.9375C391.552 52.75 390.323 52.1562 388.531 52.1562C387.302 52.1562 386.052 52.5729 384.781 53.4062C384.073 53.8854 383.156 54.6771 382.031 55.7812V73.2812C382.031 74.7812 382.365 75.7917 383.031 76.3125C383.698 76.8125 384.75 77.0833 386.188 77.125V78H372.531V77.125ZM409.656 83.7812C409.656 85.5312 410.635 86.7396 412.594 87.4062C414.573 88.0729 416.833 88.4062 419.375 88.4062C422.833 88.4062 425.646 87.8021 427.812 86.5938C429.979 85.4062 431.062 83.9375 431.062 82.1875C431.062 80.7917 430.188 79.8646 428.438 79.4062C427.354 79.1354 425.302 78.9792 422.281 78.9375C421.51 78.9167 420.698 78.8854 419.844 78.8438C418.99 78.8229 418.208 78.7917 417.5 78.75C417.042 78.7292 416.302 78.6458 415.281 78.5C414.26 78.3542 413.5 78.2292 413 78.125C412.75 78.125 412.135 78.7812 411.156 80.0938C410.156 81.4271 409.656 82.6562 409.656 83.7812ZM413.719 67.5C411.823 66.875 410.344 65.7604 409.281 64.1562C408.24 62.5521 407.719 60.75 407.719 58.75C407.719 56.3125 408.688 54 410.625 51.8125C412.562 49.625 415.302 48.5312 418.844 48.5312C420.365 48.5312 422.042 48.8958 423.875 49.625C425.708 50.3333 427.469 50.6875 429.156 50.6875C429.594 50.6875 430.25 50.6771 431.125 50.6562C432.021 50.6146 432.667 50.5938 433.062 50.5938H433.438V53.125H428.031C428.406 54 428.698 54.7604 428.906 55.4062C429.26 56.6146 429.438 57.7604 429.438 58.8438C429.438 61.2188 428.448 63.4062 426.469 65.4062C424.51 67.3854 421.865 68.375 418.531 68.375C418.01 68.375 417.073 68.2812 415.719 68.0938C415.115 68.0938 414.312 68.6042 413.312 69.625C412.333 70.6458 411.844 71.4792 411.844 72.125C411.844 72.7917 412.573 73.2812 414.031 73.5938C414.99 73.8021 416.052 73.9062 417.219 73.9062C422.573 73.9062 426.208 74.2083 428.125 74.8125C431.271 75.7917 432.844 77.8958 432.844 81.125C432.844 84.4167 431 87.0417 427.312 89C423.646 90.9583 419.938 91.9375 416.188 91.9375C412.771 91.9375 410.062 91.2396 408.062 89.8438C406.062 88.4688 405.062 87.0208 405.062 85.5C405.062 84.75 405.323 84.0104 405.844 83.2812C406.385 82.5729 407.438 81.5104 409 80.0938L411.062 78.25L411.438 77.875C410.479 77.5 409.76 77.1354 409.281 76.7812C408.448 76.1354 408.031 75.3958 408.031 74.5625C408.031 73.7917 408.385 72.9479 409.094 72.0312C409.823 71.0938 411.365 69.5833 413.719 67.5ZM419.656 66.875C420.802 66.875 421.76 66.5625 422.531 65.9375C423.781 64.9375 424.406 63.1979 424.406 60.7188C424.406 58.7396 423.896 56.5104 422.875 54.0312C421.875 51.5521 420.198 50.3125 417.844 50.3125C415.802 50.3125 414.396 51.2812 413.625 53.2188C413.229 54.2396 413.031 55.5 413.031 57C413.031 59.5417 413.646 61.8229 414.875 63.8438C416.104 65.8646 417.698 66.875 419.656 66.875ZM450.031 48.6875C452.969 48.6875 455.542 49.7083 457.75 51.75C459.958 53.7708 461.062 56.6458 461.062 60.375H441.219C441.427 65.2083 442.521 68.7292 444.5 70.9375C446.479 73.1458 448.823 74.25 451.531 74.25C453.719 74.25 455.562 73.6771 457.062 72.5312C458.562 71.3854 459.948 69.7604 461.219 67.6562L462.312 68.0312C461.458 70.6771 459.854 73.125 457.5 75.375C455.167 77.625 452.302 78.75 448.906 78.75C444.99 78.75 441.958 77.2708 439.812 74.3125C437.688 71.3542 436.625 67.9479 436.625 64.0938C436.625 59.9062 437.865 56.2917 440.344 53.25C442.823 50.2083 446.052 48.6875 450.031 48.6875ZM448.219 50.9688C445.844 50.9688 444.031 52.0208 442.781 54.125C442.115 55.25 441.635 56.6667 441.344 58.375H454.531C454.302 56.2917 453.906 54.7396 453.344 53.7188C452.323 51.8854 450.615 50.9688 448.219 50.9688ZM464.094 76.9688C466.01 76.8021 467.281 76.4688 467.906 75.9688C468.531 75.4479 468.844 74.3542 468.844 72.6875V58.5938C468.844 56.5312 468.646 55.0625 468.25 54.1875C467.875 53.2917 467.177 52.8438 466.156 52.8438C465.948 52.8438 465.667 52.875 465.312 52.9375C464.979 52.9792 464.625 53.0417 464.25 53.125V52.0938C465.438 51.6771 466.656 51.25 467.906 50.8125C469.156 50.375 470.021 50.0625 470.5 49.875C471.542 49.4792 472.615 49.0312 473.719 48.5312C473.865 48.5312 473.948 48.5833 473.969 48.6875C474.01 48.7917 474.031 49.0104 474.031 49.3438V54.4688C475.365 52.6146 476.646 51.1667 477.875 50.125C479.125 49.0833 480.417 48.5625 481.75 48.5625C482.812 48.5625 483.677 48.8854 484.344 49.5312C485.01 50.1562 485.344 50.9479 485.344 51.9062C485.344 52.7604 485.083 53.4792 484.562 54.0625C484.062 54.6458 483.427 54.9375 482.656 54.9375C481.865 54.9375 481.062 54.5729 480.25 53.8438C479.458 53.1146 478.833 52.75 478.375 52.75C477.646 52.75 476.75 53.3438 475.688 54.5312C474.625 55.6979 474.094 56.9062 474.094 58.1562V72.25C474.094 74.0417 474.51 75.2917 475.344 76C476.177 76.6875 477.562 77.0104 479.5 76.9688V78H464.094V76.9688Z" fill="white"/>
</svg>
